<svg width="1447" height="1140" viewBox="0 0 1447 1140" fill="none" xmlns="http://www.w3.org/2000/svg">
<rect width="1447" height="1110" transform="translate(0 30)" fill="#000032"/>
<path d="M365.172 251.822L416 230.174L466.828 251.822V294.178L416 315.826L365.172 294.178V251.822Z" stroke="#6046FF" stroke-width="4"/>
<path d="M592.5 389.322L643.328 367.674L694.155 389.322V431.678L643.328 453.326L592.5 431.678V389.322Z" stroke="#6046FF" stroke-width="4"/>
<path d="M601.172 251.822L652 230.174L702.828 251.822V294.178L652 315.826L601.172 294.178V251.822Z" stroke="#6046FF" stroke-width="4"/>
<path d="M540.172 319.822L591 298.174L641.828 319.822V362.178L591 383.826L540.172 362.178V319.822Z" stroke="#6046FF" stroke-width="4"/>
<path d="M426 319.322L476.828 297.674L527.655 319.322V361.678L476.828 383.326L426 361.678V319.322Z" stroke="#6046FF" stroke-width="4"/>
<path d="M373.172 385.822L424 364.174L474.828 385.822V428.178L424 449.826L373.172 428.178V385.822Z" stroke="#6046FF" stroke-width="4"/>
<path d="M714.172 251.822L765 230.174L815.828 251.822V294.178L765 315.826L714.172 294.178V251.822Z" stroke="#E7587B" stroke-width="4"/>
<path d="M941.5 389.322L992.328 367.674L1043.16 389.322V431.678L992.328 453.326L941.5 431.678V389.322Z" stroke="#E7587B" stroke-width="4"/>
<path d="M950.172 251.822L1001 230.174L1051.83 251.822V294.178L1001 315.826L950.172 294.178V251.822Z" stroke="#E7587B" stroke-width="4"/>
<path d="M889.172 319.822L940 298.174L990.828 319.822V362.178L940 383.826L889.172 362.178V319.822Z" stroke="#E7587B" stroke-width="4"/>
<path d="M775 319.322L825.828 297.674L876.655 319.322V361.678L825.828 383.326L775 361.678V319.322Z" stroke="#E7587B" stroke-width="4"/>
<path d="M722.172 385.822L773 364.174L823.828 385.822V428.178L773 449.826L722.172 428.178V385.822Z" stroke="#E7587B" stroke-width="4"/>
<path d="M1072.17 255.822L1123 234.174L1173.83 255.822V298.178L1123 319.826L1072.17 298.178V255.822Z" stroke="#79DEE4" stroke-width="4"/>
<path d="M1299.5 393.322L1350.33 371.674L1401.16 393.322V435.678L1350.33 457.326L1299.5 435.678V393.322Z" stroke="#79DEE4" stroke-width="4"/>
<path d="M1308.17 255.822L1359 234.174L1409.83 255.822V298.178L1359 319.826L1308.17 298.178V255.822Z" stroke="#79DEE4" stroke-width="4"/>
<path d="M1247.17 323.822L1298 302.174L1348.83 323.822V366.178L1298 387.826L1247.17 366.178V323.822Z" stroke="#79DEE4" stroke-width="4"/>
<path d="M1133 323.322L1183.83 301.674L1234.66 323.322V365.678L1183.83 387.326L1133 365.678V323.322Z" stroke="#79DEE4" stroke-width="4"/>
<path d="M1080.17 389.822L1131 368.174L1181.83 389.822V432.178L1131 453.826L1080.17 432.178V389.822Z" stroke="#79DEE4" stroke-width="4"/>
<path d="M14.1725 241.822L65 220.174L115.828 241.822V284.178L65 305.826L14.1725 284.178V241.822Z" stroke="#FFBF1C" stroke-width="4"/>
<path d="M241.5 379.322L292.328 357.674L343.155 379.322V421.678L292.328 443.326L241.5 421.678V379.322Z" stroke="#FFBF1C" stroke-width="4"/>
<path d="M250.172 241.822L301 220.174L351.828 241.822V284.178L301 305.826L250.172 284.178V241.822Z" stroke="#FFBF1C" stroke-width="4"/>
<path d="M189.172 309.822L240 288.174L290.828 309.822V352.178L240 373.826L189.172 352.178V309.822Z" stroke="#FFBF1C" stroke-width="4"/>
<path d="M75 309.322L125.828 287.674L176.655 309.322V351.678L125.828 373.326L75 351.678V309.322Z" stroke="#FFBF1C" stroke-width="4"/>
<path d="M22.1725 375.822L73 354.174L123.828 375.822V418.178L73 439.826L22.1725 418.178V375.822Z" stroke="#FFBF1C" stroke-width="4"/>
<path d="M14.1725 23.822L65 2.17385L115.828 23.822V66.178L65 87.8261L14.1725 66.178V23.822Z" stroke="#FFBF1C" stroke-width="4"/>
<path d="M241.5 161.322L292.328 139.674L343.155 161.322V203.678L292.328 225.326L241.5 203.678V161.322Z" stroke="#FFBF1C" stroke-width="4"/>
<path d="M250.172 23.822L301 2.17385L351.828 23.822V66.178L301 87.8261L250.172 66.178V23.822Z" stroke="#FFBF1C" stroke-width="4"/>
<path d="M189.172 91.822L240 70.1738L290.828 91.822V134.178L240 155.826L189.172 134.178V91.822Z" stroke="#FFBF1C" stroke-width="4"/>
<path d="M75 91.322L125.828 69.6738L176.655 91.322V133.678L125.828 155.326L75 133.678V91.322Z" stroke="#FFBF1C" stroke-width="4"/>
<path d="M22.1725 157.822L73 136.174L123.828 157.822V200.178L73 221.826L22.1725 200.178V157.822Z" stroke="#FFBF1C" stroke-width="4"/>
<path d="M364.172 27.822L415 6.17385L465.828 27.822V70.178L415 91.8261L364.172 70.178V27.822Z" stroke="#31E764" stroke-width="4"/>
<path d="M591.5 165.322L642.328 143.674L693.155 165.322V207.678L642.328 229.326L591.5 207.678V165.322Z" stroke="#31E764" stroke-width="4"/>
<path d="M600.172 27.822L651 6.17385L701.828 27.822V70.178L651 91.8261L600.172 70.178V27.822Z" stroke="#31E764" stroke-width="4"/>
<path d="M539.172 95.822L590 74.1738L640.828 95.822V138.178L590 159.826L539.172 138.178V95.822Z" stroke="#31E764" stroke-width="4"/>
<path d="M425 95.322L475.828 73.6738L526.655 95.322V137.678L475.828 159.326L425 137.678V95.322Z" stroke="#31E764" stroke-width="4"/>
<path d="M372.172 161.822L423 140.174L473.828 161.822V204.178L423 225.826L372.172 204.178V161.822Z" stroke="#31E764" stroke-width="4"/>
<path d="M710.172 27.822L761 6.17385L811.828 27.822V70.178L761 91.8261L710.172 70.178V27.822Z" stroke="#E7587B" stroke-width="4"/>
<path d="M937.5 165.322L988.328 143.674L1039.16 165.322V207.678L988.328 229.326L937.5 207.678V165.322Z" stroke="#E7587B" stroke-width="4"/>
<path d="M946.172 27.822L997 6.17385L1047.83 27.822V70.178L997 91.8261L946.172 70.178V27.822Z" stroke="#E7587B" stroke-width="4"/>
<path d="M885.172 95.822L936 74.1738L986.828 95.822V138.178L936 159.826L885.172 138.178V95.822Z" stroke="#E7587B" stroke-width="4"/>
<path d="M771 95.322L821.828 73.6738L872.655 95.322V137.678L821.828 159.326L771 137.678V95.322Z" stroke="#E7587B" stroke-width="4"/>
<path d="M718.172 161.822L769 140.174L819.828 161.822V204.178L769 225.826L718.172 204.178V161.822Z" stroke="#E7587B" stroke-width="4"/>
<path d="M1055.17 27.822L1106 6.17385L1156.83 27.822V70.178L1106 91.8261L1055.17 70.178V27.822Z" stroke="#31E764" stroke-width="4"/>
<path d="M1282.5 165.322L1333.33 143.674L1384.16 165.322V207.678L1333.33 229.326L1282.5 207.678V165.322Z" stroke="#31E764" stroke-width="4"/>
<path d="M1291.17 27.822L1342 6.17385L1392.83 27.822V70.178L1342 91.8261L1291.17 70.178V27.822Z" stroke="#31E764" stroke-width="4"/>
<path d="M1230.17 95.822L1281 74.1738L1331.83 95.822V138.178L1281 159.826L1230.17 138.178V95.822Z" stroke="#31E764" stroke-width="4"/>
<path d="M1116 95.322L1166.83 73.6738L1217.66 95.322V137.678L1166.83 159.326L1116 137.678V95.322Z" stroke="#31E764" stroke-width="4"/>
<path d="M1063.17 161.822L1114 140.174L1164.83 161.822V204.178L1114 225.826L1063.17 204.178V161.822Z" stroke="#31E764" stroke-width="4"/>
<path d="M14.1725 469.822L65 448.174L115.828 469.822V512.178L65 533.826L14.1725 512.178V469.822Z" stroke="#A60F0F" stroke-width="4"/>
<path d="M241.5 607.322L292.328 585.674L343.155 607.322V649.678L292.328 671.326L241.5 649.678V607.322Z" stroke="#A60F0F" stroke-width="4"/>
<path d="M250.172 469.822L301 448.174L351.828 469.822V512.178L301 533.826L250.172 512.178V469.822Z" stroke="#A60F0F" stroke-width="4"/>
<path d="M189.172 537.822L240 516.174L290.828 537.822V580.178L240 601.826L189.172 580.178V537.822Z" stroke="#A60F0F" stroke-width="4"/>
<path d="M75 537.322L125.828 515.674L176.655 537.322V579.678L125.828 601.326L75 579.678V537.322Z" stroke="#A60F0F" stroke-width="4"/>
<path d="M22.1725 603.822L73 582.174L123.828 603.822V646.178L73 667.826L22.1725 646.178V603.822Z" stroke="#A60F0F" stroke-width="4"/>
<path d="M372.172 479.822L423 458.174L473.828 479.822V522.178L423 543.826L372.172 522.178V479.822Z" stroke="#6046FF" stroke-width="4"/>
<path d="M599.5 617.322L650.328 595.674L701.155 617.322V659.678L650.328 681.326L599.5 659.678V617.322Z" stroke="#6046FF" stroke-width="4"/>
<path d="M608.172 479.822L659 458.174L709.828 479.822V522.178L659 543.826L608.172 522.178V479.822Z" stroke="#6046FF" stroke-width="4"/>
<path d="M547.172 547.822L598 526.174L648.828 547.822V590.178L598 611.826L547.172 590.178V547.822Z" stroke="#6046FF" stroke-width="4"/>
<path d="M433 547.322L483.828 525.674L534.655 547.322V589.678L483.828 611.326L433 589.678V547.322Z" stroke="#6046FF" stroke-width="4"/>
<path d="M380.172 613.822L431 592.174L481.828 613.822V656.178L431 677.826L380.172 656.178V613.822Z" stroke="#6046FF" stroke-width="4"/>
<path d="M730.172 475.822L781 454.174L831.828 475.822V518.178L781 539.826L730.172 518.178V475.822Z" stroke="#31E764" stroke-width="4"/>
<path d="M957.5 613.322L1008.33 591.674L1059.16 613.322V655.678L1008.33 677.326L957.5 655.678V613.322Z" stroke="#31E764" stroke-width="4"/>
<path d="M966.172 475.822L1017 454.174L1067.83 475.822V518.178L1017 539.826L966.172 518.178V475.822Z" stroke="#31E764" stroke-width="4"/>
<path d="M905.172 543.822L956 522.174L1006.83 543.822V586.178L956 607.826L905.172 586.178V543.822Z" stroke="#31E764" stroke-width="4"/>
<path d="M791 543.322L841.828 521.674L892.655 543.322V585.678L841.828 607.326L791 585.678V543.322Z" stroke="#31E764" stroke-width="4"/>
<path d="M738.172 609.822L789 588.174L839.828 609.822V652.178L789 673.826L738.172 652.178V609.822Z" stroke="#31E764" stroke-width="4"/>
<path d="M1076.17 483.822L1127 462.174L1177.83 483.822V526.178L1127 547.826L1076.17 526.178V483.822Z" stroke="#79DEE4" stroke-width="4"/>
<path d="M1303.5 621.322L1354.33 599.674L1405.16 621.322V663.678L1354.33 685.326L1303.5 663.678V621.322Z" stroke="#79DEE4" stroke-width="4"/>
<path d="M1312.17 483.822L1363 462.174L1413.83 483.822V526.178L1363 547.826L1312.17 526.178V483.822Z" stroke="#79DEE4" stroke-width="4"/>
<path d="M1251.17 551.822L1302 530.174L1352.83 551.822V594.178L1302 615.826L1251.17 594.178V551.822Z" stroke="#79DEE4" stroke-width="4"/>
<path d="M1137 551.322L1187.83 529.674L1238.66 551.322V593.678L1187.83 615.326L1137 593.678V551.322Z" stroke="#79DEE4" stroke-width="4"/>
<path d="M1084.17 617.822L1135 596.174L1185.83 617.822V660.178L1135 681.826L1084.17 660.178V617.822Z" stroke="#79DEE4" stroke-width="4"/>
<path d="M14.1725 697.822L65 676.174L115.828 697.822V740.178L65 761.826L14.1725 740.178V697.822Z" stroke="white" stroke-width="4"/>
<path d="M241.5 835.322L292.328 813.674L343.155 835.322V877.678L292.328 899.326L241.5 877.678V835.322Z" stroke="white" stroke-width="4"/>
<path d="M250.172 697.822L301 676.174L351.828 697.822V740.178L301 761.826L250.172 740.178V697.822Z" stroke="white" stroke-width="4"/>
<path d="M189.172 765.822L240 744.174L290.828 765.822V808.178L240 829.826L189.172 808.178V765.822Z" stroke="white" stroke-width="4"/>
<path d="M75 765.322L125.828 743.674L176.655 765.322V807.678L125.828 829.326L75 807.678V765.322Z" stroke="white" stroke-width="4"/>
<path d="M22.1725 831.822L73 810.174L123.828 831.822V874.178L73 895.826L22.1725 874.178V831.822Z" stroke="white" stroke-width="4"/>
<path d="M14.1725 697.822L65 676.174L115.828 697.822V740.178L65 761.826L14.1725 740.178V697.822Z" stroke="white" stroke-width="4"/>
<path d="M241.5 835.322L292.328 813.674L343.155 835.322V877.678L292.328 899.326L241.5 877.678V835.322Z" stroke="white" stroke-width="4"/>
<path d="M250.172 697.822L301 676.174L351.828 697.822V740.178L301 761.826L250.172 740.178V697.822Z" stroke="white" stroke-width="4"/>
<path d="M189.172 765.822L240 744.174L290.828 765.822V808.178L240 829.826L189.172 808.178V765.822Z" stroke="white" stroke-width="4"/>
<path d="M75 765.322L125.828 743.674L176.655 765.322V807.678L125.828 829.326L75 807.678V765.322Z" stroke="white" stroke-width="4"/>
<path d="M22.1725 831.822L73 810.174L123.828 831.822V874.178L73 895.826L22.1725 874.178V831.822Z" stroke="white" stroke-width="4"/>
<path d="M14.1725 697.822L65 676.174L115.828 697.822V740.178L65 761.826L14.1725 740.178V697.822Z" stroke="white" stroke-width="4"/>
<path d="M241.5 835.322L292.328 813.674L343.155 835.322V877.678L292.328 899.326L241.5 877.678V835.322Z" stroke="white" stroke-width="4"/>
<path d="M250.172 697.822L301 676.174L351.828 697.822V740.178L301 761.826L250.172 740.178V697.822Z" stroke="white" stroke-width="4"/>
<path d="M189.172 765.822L240 744.174L290.828 765.822V808.178L240 829.826L189.172 808.178V765.822Z" stroke="white" stroke-width="4"/>
<path d="M75 765.322L125.828 743.674L176.655 765.322V807.678L125.828 829.326L75 807.678V765.322Z" stroke="white" stroke-width="4"/>
<path d="M22.1725 831.822L73 810.174L123.828 831.822V874.178L73 895.826L22.1725 874.178V831.822Z" stroke="white" stroke-width="4"/>
<path d="M14.1725 697.822L65 676.174L115.828 697.822V740.178L65 761.826L14.1725 740.178V697.822Z" stroke="#D50404" stroke-width="4"/>
<path d="M241.5 835.322L292.328 813.674L343.155 835.322V877.678L292.328 899.326L241.5 877.678V835.322Z" stroke="#D50404" stroke-width="4"/>
<path d="M250.172 697.822L301 676.174L351.828 697.822V740.178L301 761.826L250.172 740.178V697.822Z" stroke="#D50404" stroke-width="4"/>
<path d="M189.172 765.822L240 744.174L290.828 765.822V808.178L240 829.826L189.172 808.178V765.822Z" stroke="#D50404" stroke-width="4"/>
<path d="M75 765.322L125.828 743.674L176.655 765.322V807.678L125.828 829.326L75 807.678V765.322Z" stroke="#D50404" stroke-width="4"/>
<path d="M22.1725 831.822L73 810.174L123.828 831.822V874.178L73 895.826L22.1725 874.178V831.822Z" stroke="#D50404" stroke-width="4"/>
<path d="M372.172 703.822L423 682.174L473.828 703.822V746.178L423 767.826L372.172 746.178V703.822Z" stroke="#FFBF1C" stroke-width="4"/>
<path d="M599.5 841.322L650.328 819.674L701.155 841.322V883.678L650.328 905.326L599.5 883.678V841.322Z" stroke="#FFBF1C" stroke-width="4"/>
<path d="M608.172 703.822L659 682.174L709.828 703.822V746.178L659 767.826L608.172 746.178V703.822Z" stroke="#FFBF1C" stroke-width="4"/>
<path d="M547.172 771.822L598 750.174L648.828 771.822V814.178L598 835.826L547.172 814.178V771.822Z" stroke="#FFBF1C" stroke-width="4"/>
<path d="M433 771.322L483.828 749.674L534.655 771.322V813.678L483.828 835.326L433 813.678V771.322Z" stroke="#FFBF1C" stroke-width="4"/>
<path d="M380.172 837.822L431 816.174L481.828 837.822V880.178L431 901.826L380.172 880.178V837.822Z" stroke="#FFBF1C" stroke-width="4"/>
<path d="M722.172 703.822L773 682.174L823.828 703.822V746.178L773 767.826L722.172 746.178V703.822Z" stroke="#31E764" stroke-width="4"/>
<path d="M949.5 841.322L1000.33 819.674L1051.16 841.322V883.678L1000.33 905.326L949.5 883.678V841.322Z" stroke="#31E764" stroke-width="4"/>
<path d="M958.172 703.822L1009 682.174L1059.83 703.822V746.178L1009 767.826L958.172 746.178V703.822Z" stroke="#31E764" stroke-width="4"/>
<path d="M897.172 771.822L948 750.174L998.828 771.822V814.178L948 835.826L897.172 814.178V771.822Z" stroke="#31E764" stroke-width="4"/>
<path d="M783 771.322L833.828 749.674L884.655 771.322V813.678L833.828 835.326L783 813.678V771.322Z" stroke="#31E764" stroke-width="4"/>
<path d="M730.172 837.822L781 816.174L831.828 837.822V880.178L781 901.826L730.172 880.178V837.822Z" stroke="#31E764" stroke-width="4"/>
<path d="M1080.17 717.822L1131 696.174L1181.83 717.822V760.178L1131 781.826L1080.17 760.178V717.822Z" stroke="#D50404" stroke-width="4"/>
<path d="M1307.5 855.322L1358.33 833.674L1409.16 855.322V897.678L1358.33 919.326L1307.5 897.678V855.322Z" stroke="#D50404" stroke-width="4"/>
<path d="M1316.17 717.822L1367 696.174L1417.83 717.822V760.178L1367 781.826L1316.17 760.178V717.822Z" stroke="#D50404" stroke-width="4"/>
<path d="M1255.17 785.822L1306 764.174L1356.83 785.822V828.178L1306 849.826L1255.17 828.178V785.822Z" stroke="#D50404" stroke-width="4"/>
<path d="M1141 785.322L1191.83 763.674L1242.66 785.322V827.678L1191.83 849.326L1141 827.678V785.322Z" stroke="#D50404" stroke-width="4"/>
<path d="M1088.17 851.822L1139 830.174L1189.83 851.822V894.178L1139 915.826L1088.17 894.178V851.822Z" stroke="#D50404" stroke-width="4"/>
<path d="M10.1725 921.822L61 900.174L111.828 921.822V964.178L61 985.826L10.1725 964.178V921.822Z" stroke="#79DEE4" stroke-width="4"/>
<path d="M237.5 1059.32L288.328 1037.67L339.155 1059.32V1101.68L288.328 1123.33L237.5 1101.68V1059.32Z" stroke="#79DEE4" stroke-width="4"/>
<path d="M246.172 921.822L297 900.174L347.828 921.822V964.178L297 985.826L246.172 964.178V921.822Z" stroke="#79DEE4" stroke-width="4"/>
<path d="M185.172 989.822L236 968.174L286.828 989.822V1032.18L236 1053.83L185.172 1032.18V989.822Z" stroke="#79DEE4" stroke-width="4"/>
<path d="M71 989.322L121.828 967.674L172.655 989.322V1031.68L121.828 1053.33L71 1031.68V989.322Z" stroke="#79DEE4" stroke-width="4"/>
<path d="M18.1725 1055.82L69 1034.17L119.828 1055.82V1098.18L69 1119.83L18.1725 1098.18V1055.82Z" stroke="#79DEE4" stroke-width="4"/>
<path d="M1100.17 1069.82L1151 1048.17L1201.83 1069.82V1112.18L1151 1133.83L1100.17 1112.18V1069.82Z" stroke="#D50404" stroke-width="4"/>
<path d="M1153 1003.32L1203.83 981.674L1254.66 1003.32V1045.68L1203.83 1067.33L1153 1045.68V1003.32Z" stroke="#D50404" stroke-width="4"/>
<path d="M1092.17 935.822L1143 914.174L1193.83 935.822V978.178L1143 999.826L1092.17 978.178V935.822Z" stroke="#D50404" stroke-width="4"/>
<path d="M1267.17 1003.82L1318 982.174L1368.83 1003.82V1046.18L1318 1067.83L1267.17 1046.18V1003.82Z" stroke="#D50404" stroke-width="4"/>
<path d="M1319.5 1073.32L1370.33 1051.67L1421.16 1073.32V1115.68L1370.33 1137.33L1319.5 1115.68V1073.32Z" stroke="#D50404" stroke-width="4"/>
<path d="M1328.17 935.822L1379 914.174L1429.83 935.822V978.178L1379 999.826L1328.17 978.178V935.822Z" stroke="#D50404" stroke-width="4"/>
<path d="M718.172 934.822L769 913.174L819.828 934.822V977.178L769 998.826L718.172 977.178V934.822Z" stroke="#79DEE4" stroke-width="4"/>
<path d="M945.5 1072.32L996.328 1050.67L1047.16 1072.32V1114.68L996.328 1136.33L945.5 1114.68V1072.32Z" stroke="#79DEE4" stroke-width="4"/>
<path d="M954.172 934.822L1005 913.174L1055.83 934.822V977.178L1005 998.826L954.172 977.178V934.822Z" stroke="#79DEE4" stroke-width="4"/>
<path d="M893.172 1002.82L944 981.174L994.828 1002.82V1045.18L944 1066.83L893.172 1045.18V1002.82Z" stroke="#79DEE4" stroke-width="4"/>
<path d="M779 1002.32L829.828 980.674L880.655 1002.32V1044.68L829.828 1066.33L779 1044.68V1002.32Z" stroke="#79DEE4" stroke-width="4"/>
<path d="M726.172 1068.82L777 1047.17L827.828 1068.82V1111.18L777 1132.83L726.172 1111.18V1068.82Z" stroke="#79DEE4" stroke-width="4"/>
<path d="M382.172 930.812L433 909.164L483.828 930.812V973.168L433 994.816L382.172 973.168V930.812Z" stroke="#FFBF1C" stroke-width="4"/>
<path d="M609.5 1068.31L660.328 1046.66L711.155 1068.31V1110.67L660.328 1132.32L609.5 1110.67V1068.31Z" stroke="#FFBF1C" stroke-width="4"/>
<path d="M618.172 930.812L669 909.164L719.828 930.812V973.168L669 994.816L618.172 973.168V930.812Z" stroke="#FFBF1C" stroke-width="4"/>
<path d="M557.172 998.812L608 977.164L658.828 998.812V1041.17L608 1062.82L557.172 1041.17V998.812Z" stroke="#FFBF1C" stroke-width="4"/>
<path d="M443 998.312L493.828 976.664L544.655 998.312V1040.67L493.828 1062.32L443 1040.67V998.312Z" stroke="#FFBF1C" stroke-width="4"/>
<path d="M390.172 1064.81L441 1043.16L491.828 1064.81V1107.17L441 1128.82L390.172 1107.17V1064.81Z" stroke="#FFBF1C" stroke-width="4"/>
</svg>
